<?xml version="1.0" standalone="no"?>
<!DOCTYPE svg PUBLIC "-//W3C//DTD SVG 20010904//EN"
 "http://www.w3.org/TR/2001/REC-SVG-20010904/DTD/svg10.dtd">
<svg version="1.0" xmlns="http://www.w3.org/2000/svg"
 width="438.000000pt" height="204.000000pt" viewBox="0 0 438.000000 204.000000"
 preserveAspectRatio="xMidYMid meet">
<metadata>
Created by potrace 1.16, written by Peter Selinger 2001-2019
</metadata>
<g transform="translate(0.000000,204.000000) scale(0.100000,-0.100000)"
fill="#00B682" stroke="none">
<path d="M899 1776 c-2 -3 -3 -25 -1 -50 l4 -46 44 0 44 0 0 -289 0 -290 -47
-3 c-47 -3 -48 -3 -49 -38 -1 -62 -6 -60 172 -60 l164 0 0 49 0 50 -47 3 -48
3 -3 338 -2 337 -113 0 c-63 0 -116 -2 -118 -4z"/>
<path d="M1830 1731 l0 -50 48 -3 47 -3 0 -285 0 -285 -47 -3 -48 -3 0 -50 0
-49 165 0 165 0 0 50 0 50 -45 0 -45 0 0 151 0 150 38 16 c58 25 115 28 135 8
15 -14 17 -43 17 -221 l0 -204 115 0 115 0 0 50 0 50 -44 0 -44 0 -4 188 c-3
164 -5 190 -22 215 -44 66 -144 77 -242 27 -32 -16 -60 -30 -61 -30 -2 0 -3
63 -3 140 l0 140 -120 0 -120 0 0 -49z"/>
<path d="M3336 1734 c-8 -21 -8 -528 0 -549 10 -24 272 -197 294 -193 10 2 82
70 159 152 l141 150 -2 225 -3 226 -291 3 c-260 2 -292 1 -298 -14z m323 -46
c36 -57 42 -75 30 -100 -10 -22 -209 -191 -217 -184 -7 8 149 306 161 306 7 0
19 -10 26 -22z m155 -242 c42 -66 76 -123 76 -128 0 -16 -39 -7 -136 32 -93
38 -124 59 -124 85 0 11 100 138 105 133 2 -2 37 -57 79 -122z m-164 -122 c85
-14 156 -27 158 -29 5 -5 -14 -9 -226 -56 -126 -28 -196 -39 -202 -33 -11 11
25 90 55 124 23 25 30 25 215 -6z"/>
<path d="M405 1545 c-27 -8 -53 -14 -57 -15 -5 0 -8 -27 -8 -61 0 -58 1 -60
23 -53 81 26 194 33 215 12 7 -7 12 -29 12 -50 l0 -38 -63 0 c-87 0 -159 -23
-191 -61 -49 -57 -56 -155 -18 -222 39 -66 145 -84 232 -38 49 26 46 25 53 1
5 -18 14 -20 116 -20 l111 0 0 50 0 50 -44 0 -44 0 -4 179 c-3 163 -5 182 -24
207 -43 58 -68 69 -167 71 -57 2 -111 -3 -142 -12z m185 -359 l0 -63 -46 -13
c-66 -19 -98 -1 -102 57 -4 60 21 83 93 83 l55 0 0 -64z"/>
<path d="M1520 1549 c-13 -6 -32 -17 -41 -25 -16 -14 -18 -13 -24 5 -6 20 -14
21 -121 21 l-114 0 0 -50 0 -50 50 0 50 0 0 -274 0 -275 -47 -3 -48 -3 -3 -47
-3 -48 165 0 166 0 0 50 0 50 -45 0 -45 0 0 53 0 54 48 -10 c109 -23 205 21
250 113 22 46 28 71 30 152 7 199 -59 299 -195 297 -26 0 -59 -5 -73 -10z
m103 -131 c25 -34 35 -156 18 -225 -21 -84 -58 -105 -150 -87 l-31 7 0 153 0
153 28 16 c15 8 46 14 71 12 35 -1 48 -8 64 -29z"/>
<path d="M2675 1553 c-11 -2 -37 -9 -57 -14 l-38 -10 0 -58 0 -58 58 13 c79
19 157 18 176 -2 9 -8 16 -30 16 -48 l0 -33 -89 -5 c-149 -9 -211 -61 -211
-178 0 -64 22 -114 63 -144 41 -30 138 -29 191 2 31 18 41 20 47 10 5 -7 9
-16 9 -20 0 -5 52 -8 115 -8 l115 0 0 50 0 50 -50 0 -50 0 0 170 c0 153 -2
175 -21 211 -28 56 -80 79 -179 78 -41 -1 -84 -3 -95 -6z m155 -363 c0 -67 -7
-75 -78 -86 -32 -5 -44 -2 -61 15 -29 29 -27 76 4 106 20 21 34 25 80 25 l55
0 0 -60z"/>
</g>
</svg>
